#VRML V2.0 utf8
WorldInfo { title "CircuitEDA Maker Library 3D model" }
Transform { translation 0.000000 0.000000 0.314961 children [ Shape { appearance Appearance { material Material { diffuseColor 0.05 0.25 0.05 } } geometry Box { size 15.748031 11.023622 0.629921 } } ] }
Transform { translation -7.362205 -0.031496 1.122047 children [ Shape { appearance Appearance { material Material { diffuseColor 0.05 0.05 0.05 } } geometry Box { size 1.000000 7.007874 0.984252 } } ] }
Transform { translation 6.614173 0.000000 2.598425 children [ Shape { appearance Appearance { material Material { diffuseColor 0.1 0.3 0.9 } } geometry Box { size 2.952756 4.409449 3.937008 } } ] }
Transform { translation -1.181102 0.000000 0.984252 children [ Shape { appearance Appearance { material Material { diffuseColor 0.05 0.05 0.05 } } geometry Box { size 3.937008 2.755906 0.708661 } } ] }
Transform { translation -1.574803 2.755906 1.318898 children [ Shape { appearance Appearance { material Material { diffuseColor 0.7 0.7 0.7 } } geometry Box { size 3.149606 1.377953 1.377953 } } ] }
